<svg width="29" height="35" viewBox="0 0 29 35" fill="none" xmlns="http://www.w3.org/2000/svg">
<path d="M24.2215 18.6137C24.2391 17.2721 24.602 15.9568 25.2765 14.79C25.9509 13.6232 26.915 12.6428 28.079 11.9402C27.3395 10.9032 26.364 10.0499 25.2299 9.44784C24.0959 8.84583 22.8344 8.51177 21.5459 8.47218C18.7971 8.18888 16.1324 10.0872 14.7317 10.0872C13.3039 10.0872 11.1473 8.50031 8.82497 8.54723C7.32284 8.59488 5.8589 9.02379 4.57578 9.79216C3.29266 10.5605 2.23412 11.6422 1.50331 12.9317C-1.66243 18.3135 0.698922 26.223 3.73144 30.5733C5.24867 32.7035 7.02187 35.083 9.34208 34.9986C11.6125 34.9061 12.4605 33.577 15.2012 33.577C17.9164 33.577 18.7119 34.9986 21.0792 34.9449C23.5155 34.9061 25.0505 32.8053 26.5145 30.6549C27.6046 29.137 28.4435 27.4595 29 25.6844C27.5846 25.0965 26.3767 24.1126 25.5269 22.8552C24.6772 21.5979 24.2232 20.1227 24.2215 18.6137Z" fill="white"/>
<path d="M19.7503 5.61039C21.0787 4.04457 21.7331 2.03197 21.5746 0C19.5452 0.2093 17.6705 1.16171 16.3242 2.66745C15.6659 3.40305 15.1618 4.25882 14.8405 5.18585C14.5193 6.11288 14.3873 7.09298 14.4521 8.07014C15.4672 8.0804 16.4714 7.86436 17.3891 7.43829C18.3069 7.01222 19.1142 6.38723 19.7503 5.61039Z" fill="white"/>
</svg>
