<svg width="30" height="32" viewBox="0 0 30 32" fill="none" xmlns="http://www.w3.org/2000/svg">
<path d="M0.60152 0.495114C0.223459 0.878289 0 1.47296 0 2.24304V29.757C0 30.5283 0.223459 31.1217 0.60152 31.5049L0.697659 31.5944L16.7932 16.1816V16V15.8184L0.697659 0.404297L0.60152 0.495114Z" fill="url(#paint0_linear_681_21120)"/>
<path d="M22.1587 21.3212L16.7944 16.182V16.0003V15.8187L22.16 10.6807L22.2809 10.7466L28.6377 14.2051C30.454 15.1929 30.454 16.809 28.6377 17.798L22.2809 21.2565L22.1587 21.3212Z" fill="url(#paint1_linear_681_21120)"/>
<path d="M22.281 21.255L16.7945 16L0.601562 31.5049C1.20048 32.112 2.18786 32.1866 3.30126 31.5808L22.281 21.255Z" fill="url(#paint2_linear_681_21120)"/>
<path d="M22.2811 10.744L3.30272 0.418231C2.18933 -0.187632 1.20195 -0.111744 0.603027 0.49412L16.7947 15.999L22.2811 10.744Z" fill="url(#paint3_linear_681_21120)"/>
<path opacity="0.2" d="M22.1601 21.1387L3.30256 31.3985C2.24762 31.9721 1.30442 31.9347 0.699001 31.4122L0.601562 31.5055L0.697701 31.5951C1.30312 32.1176 2.24632 32.1562 3.30126 31.5814L22.2797 21.2556L22.1601 21.1387Z" fill="black"/>
<path opacity="0.12" d="M0.60152 31.3241C0.223459 30.9409 0 30.3463 0 29.5762V29.7578C0 30.5279 0.223459 31.1226 0.60152 31.5057L0.698959 31.4124L0.60152 31.3241Z" fill="black"/>
<path opacity="0.12" d="M28.6379 17.6136L22.1602 21.138L22.281 21.2537L28.6379 17.7952C29.546 17.3013 29.9994 16.6507 29.9994 16C29.9228 16.5884 29.4602 17.1657 28.6379 17.6136Z" fill="black"/>
<path opacity="0.25" d="M3.30121 0.600477L28.6365 14.3848C29.4602 14.8327 29.9214 15.4099 29.998 15.9996C29.998 15.349 29.5446 14.6971 28.6365 14.2032L3.30121 0.418842C1.48496 -0.568952 0 0.250892 0 2.24265V2.42553C0 0.433771 1.48626 -0.387317 3.30121 0.600477Z" fill="white"/>
<defs>
<linearGradient id="paint0_linear_681_21120" x1="15.3662" y1="1.95292" x2="-5.49276" y2="23.7358" gradientUnits="userSpaceOnUse">
<stop stop-color="#00A0FF"/>
<stop offset="0.0066" stop-color="#00A1FF"/>
<stop offset="0.2601" stop-color="#00BEFF"/>
<stop offset="0.5122" stop-color="#00D2FF"/>
<stop offset="0.7604" stop-color="#00DFFF"/>
<stop offset="1" stop-color="#00E3FF"/>
</linearGradient>
<linearGradient id="paint1_linear_681_21120" x1="31.0013" y1="15.9997" x2="-0.434761" y2="15.9997" gradientUnits="userSpaceOnUse">
<stop stop-color="#FFE000"/>
<stop offset="0.4087" stop-color="#FFBD00"/>
<stop offset="0.7754" stop-color="#FFA500"/>
<stop offset="1" stop-color="#FF9C00"/>
</linearGradient>
<linearGradient id="paint2_linear_681_21120" x1="19.2992" y1="18.8554" x2="-8.98719" y2="48.3948" gradientUnits="userSpaceOnUse">
<stop stop-color="#FF3A44"/>
<stop offset="1" stop-color="#C31162"/>
</linearGradient>
<linearGradient id="paint3_linear_681_21120" x1="-3.47484" y1="-8.66437" x2="9.15632" y2="4.52615" gradientUnits="userSpaceOnUse">
<stop stop-color="#32A071"/>
<stop offset="0.0685" stop-color="#2DA771"/>
<stop offset="0.4762" stop-color="#15CF74"/>
<stop offset="0.8009" stop-color="#06E775"/>
<stop offset="1" stop-color="#00F076"/>
</linearGradient>
</defs>
</svg>
