<svg width="106" height="22" viewBox="0 0 106 22" fill="none" xmlns="http://www.w3.org/2000/svg">
<path d="M33.8004 5.86961C30.8663 5.86961 28.4748 8.10018 28.4748 11.1753C28.4748 14.2305 30.8663 16.4811 33.8004 16.4811C36.7346 16.4811 39.1261 14.2305 39.1261 11.1753C39.1261 8.10018 36.7346 5.86961 33.8004 5.86961ZM33.8004 14.3915C32.1924 14.3915 30.8051 13.0653 30.8051 11.1753C30.8051 9.26537 32.1924 7.95921 33.8004 7.95921C35.4085 7.95921 36.7945 9.26537 36.7945 11.1753C36.7945 13.0641 35.4085 14.3915 33.8004 14.3915ZM22.181 5.86961C19.2468 5.86961 16.8553 8.10018 16.8553 11.1753C16.8553 14.2305 19.2468 16.4811 22.181 16.4811C25.1152 16.4811 27.5067 14.2305 27.5067 11.1753C27.5079 8.10018 25.1152 5.86961 22.181 5.86961ZM22.181 14.3915C20.5729 14.3915 19.1869 13.0653 19.1869 11.1753C19.1869 9.26537 20.5742 7.95921 22.181 7.95921C23.7891 7.95921 25.1751 9.26537 25.1751 11.1753C25.1763 13.0641 23.7891 14.3915 22.181 14.3915ZM8.36091 7.49763V9.74816H13.7477C13.5868 11.0144 13.1651 11.9388 12.5214 12.5825C11.738 13.366 10.5116 14.2305 8.36091 14.2305C5.04499 14.2305 2.45263 11.5571 2.45263 8.24115C2.45263 4.92523 5.04499 2.25178 8.36091 2.25178C10.1499 2.25178 11.456 2.95539 12.4204 3.85984L14.0085 2.27174C12.6624 0.985544 10.8734 0 8.36091 0C3.81867 0 0 3.69766 0 8.2399C0 12.7821 3.81867 16.4798 8.36091 16.4798C10.8123 16.4798 12.6624 15.6764 14.1095 14.1681C15.5966 12.6811 16.0594 10.5902 16.0594 8.90234C16.0594 8.37963 16.0195 7.89683 15.9384 7.49513H8.36091V7.49763ZM64.8838 9.24541C64.4422 8.05901 63.0948 5.86836 60.3415 5.86836C57.6082 5.86836 55.3377 8.01909 55.3377 11.1741C55.3377 14.1482 57.5883 16.4798 60.6035 16.4798C63.0349 16.4798 64.4422 14.9928 65.0247 14.1282L63.2158 12.9219C62.6133 13.8064 61.7887 14.389 60.6035 14.389C59.4171 14.389 58.5738 13.8463 58.0311 12.7809L65.1258 9.84672L64.8838 9.24541ZM57.6481 11.0144C57.5883 8.96472 59.2362 7.91929 60.4214 7.91929C61.3458 7.91929 62.1292 8.38088 62.3912 9.04456L57.6481 11.0144ZM51.8796 16.1592H54.2112V0.563881H51.8796V16.1592ZM48.0609 7.05475H47.9811C47.4583 6.43224 46.4541 5.86836 45.1879 5.86836C42.5344 5.86836 40.1029 8.19998 40.1029 11.194C40.1029 14.1681 42.5344 16.4798 45.1879 16.4798C46.4541 16.4798 47.4583 15.9172 47.9811 15.2735H48.0609V16.0369C48.0609 18.0667 46.9756 19.152 45.2265 19.152C43.7994 19.152 42.9149 18.1265 42.5531 17.2633L40.5234 18.1078C41.106 19.515 42.6541 21.2429 45.2265 21.2429C47.9599 21.2429 50.2715 19.6348 50.2715 15.7163V6.19022H48.0609V7.05475V7.05475ZM45.3887 14.3915C43.7807 14.3915 42.4346 13.0454 42.4346 11.1953C42.4346 9.3265 43.7807 7.95921 45.3887 7.95921C46.9768 7.95921 48.2218 9.32525 48.2218 11.1953C48.2218 13.0441 46.9768 14.3915 45.3887 14.3915ZM75.8046 0.563881H70.2269V16.1592H72.5536V10.2509H75.8034C78.3832 10.2509 80.9195 8.38337 80.9195 5.40802C80.9195 2.43267 78.3845 0.563881 75.8046 0.563881ZM75.8645 8.08022H72.5536V2.73457H75.8645C77.6048 2.73457 78.5928 4.17547 78.5928 5.40802C78.5928 6.61563 77.6048 8.08022 75.8645 8.08022ZM90.251 5.84091C88.5656 5.84091 86.8203 6.58319 86.0979 8.22868L88.1651 9.09196C88.6067 8.22868 89.4288 7.94798 90.2921 7.94798C91.496 7.94798 92.7198 8.6703 92.7398 9.954V10.1149C92.3181 9.87416 91.4149 9.51238 90.3121 9.51238C88.0852 9.51238 85.8173 10.7362 85.8173 13.0242C85.8173 15.1113 87.6436 16.4549 89.6896 16.4549C91.2552 16.4549 92.1173 15.7525 92.6587 14.9304H92.7385V16.1342H94.9853V10.1549C94.9853 7.38535 92.9194 5.84091 90.251 5.84091ZM89.969 14.3877C89.2068 14.3877 88.1426 14.006 88.1426 13.0641C88.1426 11.8602 89.4675 11.3986 90.6102 11.3986C91.6332 11.3986 92.1148 11.6194 92.7373 11.9201C92.5576 13.3647 91.3138 14.3877 89.969 14.3877ZM103.172 6.18149L100.503 12.9431H100.423L97.655 6.18149H95.1475L99.3005 15.6315L96.9327 20.8886H99.3604L105.761 6.18149H103.172V6.18149ZM82.2044 16.1592H84.5323V0.563881H82.2044V16.1592Z" fill="white"/>
</svg>
