<svg width="91" height="20" viewBox="0 0 91 20" fill="none" xmlns="http://www.w3.org/2000/svg">
<path d="M9.59619 12.1696H3.91629L2.55227 16.2324H0.146484L5.5264 1.20117H8.02593L13.4058 16.2324H10.959L9.59619 12.1696ZM4.50455 10.2949H9.00681L6.78735 3.70128H6.72523L4.50455 10.2949Z" fill="white"/>
<path d="M25.0247 10.753C25.0247 14.1586 23.2177 16.3466 20.4909 16.3466C19.8001 16.383 19.1131 16.2225 18.5086 15.8834C17.9041 15.5443 17.4064 15.0404 17.0726 14.4292H17.021V19.8573H14.791V5.27294H16.9496V7.09569H16.9906C17.3397 6.48748 17.8458 5.98613 18.4549 5.64497C19.0641 5.30382 19.7535 5.13562 20.4499 5.15827C23.2071 5.15828 25.0247 7.35692 25.0247 10.753ZM22.7326 10.753C22.7326 8.53428 21.5959 7.0756 19.8616 7.0756C18.1577 7.0756 17.0117 8.565 17.0117 10.753C17.0117 12.9611 18.1577 14.4399 19.8616 14.4399C21.5959 14.4399 22.7326 12.9919 22.7326 10.753Z" fill="white"/>
<path d="M36.9822 10.753C36.9822 14.1586 35.1753 16.3466 32.4484 16.3466C31.7576 16.383 31.0707 16.2225 30.4661 15.8834C29.8616 15.5443 29.3639 15.0404 29.0301 14.4292H28.9785V19.8573H26.7485V5.27292H28.9071V7.09568H28.9481C29.2972 6.48747 29.8033 5.98612 30.4124 5.64497C31.0215 5.30381 31.711 5.13561 32.4073 5.15827C35.1647 5.15827 36.9822 7.35691 36.9822 10.753ZM34.6901 10.753C34.6901 8.53427 33.5534 7.07558 31.8191 7.07558C30.1153 7.07558 28.9692 8.56499 28.9692 10.753C28.9692 12.9611 30.1153 14.4399 31.8191 14.4399C33.5534 14.4399 34.6901 12.9918 34.6901 10.753H34.6901Z" fill="white"/>
<path d="M44.8853 12.045C45.0506 13.5356 46.4861 14.5143 48.4477 14.5143C50.3273 14.5143 51.6796 13.5355 51.6796 12.1915C51.6796 11.0248 50.864 10.3262 48.9328 9.84744L47.0017 9.37816C44.2654 8.71147 42.9951 7.42065 42.9951 5.32602C42.9951 2.73255 45.2357 0.951172 48.4172 0.951172C51.5659 0.951172 53.7245 2.73255 53.7972 5.32602H51.546C51.4113 3.82597 50.182 2.92051 48.3856 2.92051C46.5891 2.92051 45.3599 3.83662 45.3599 5.16999C45.3599 6.23267 46.145 6.85799 48.0657 7.33668L49.7074 7.74331C52.7647 8.47265 54.035 9.71149 54.035 11.9101C54.035 14.7222 51.8144 16.4835 48.2824 16.4835C44.9779 16.4835 42.7467 14.7636 42.6025 12.0449L44.8853 12.045Z" fill="white"/>
<path d="M58.847 2.68164V5.2751H60.913V7.05648H58.847V13.098C58.847 14.0366 59.2607 14.474 60.1689 14.474C60.4141 14.4697 60.659 14.4523 60.9024 14.4219V16.1927C60.4941 16.2696 60.0791 16.3045 59.6638 16.2967C57.4643 16.2967 56.6065 15.4633 56.6065 13.338V7.05648H55.0269V5.2751H56.6065V2.68164H58.847Z" fill="white"/>
<path d="M62.1099 10.7535C62.1099 7.30541 64.1231 5.13867 67.2624 5.13867C70.4123 5.13867 72.4162 7.30536 72.4162 10.7535C72.4162 14.2111 70.4229 16.3683 67.2624 16.3683C64.1031 16.3683 62.1099 14.2111 62.1099 10.7535ZM70.144 10.7535C70.144 8.38818 69.0694 6.99216 67.2624 6.99216C65.4555 6.99216 64.382 8.39882 64.382 10.7535C64.382 13.1283 65.4555 14.5137 67.2624 14.5137C69.0694 14.5137 70.1439 13.1283 70.1439 10.7535H70.144Z" fill="white"/>
<path d="M74.2549 5.27283H76.3818V7.13812H76.4334C76.5773 6.55555 76.9156 6.04071 77.3915 5.68014C77.8674 5.31957 78.4518 5.13525 79.0466 5.15815C79.3036 5.15725 79.5598 5.1854 79.8106 5.24209V7.34617C79.4862 7.24617 79.1477 7.20025 78.8086 7.21024C78.4847 7.19698 78.1617 7.2546 77.8619 7.37914C77.5621 7.50367 77.2926 7.69218 77.0718 7.93172C76.851 8.17125 76.6843 8.45614 76.583 8.76682C76.4817 9.07751 76.4482 9.40662 76.4849 9.73158V16.2318H74.2549L74.2549 5.27283Z" fill="white"/>
<path d="M90.0926 13.0136C89.7926 15.003 87.8719 16.3683 85.4146 16.3683C82.2541 16.3683 80.2925 14.2323 80.2925 10.8055C80.2925 7.36806 82.2647 5.13867 85.3208 5.13867C88.3266 5.13867 90.2168 7.22147 90.2168 10.5443V11.315H82.5436V11.4509C82.5082 11.8542 82.5582 12.2605 82.6904 12.6429C82.8226 13.0252 83.034 13.3747 83.3104 13.6683C83.5868 13.9619 83.922 14.1928 84.2937 14.3457C84.6654 14.4986 85.065 14.5699 85.4662 14.555C85.9931 14.6048 86.522 14.4817 86.974 14.204C87.4261 13.9263 87.7771 13.5088 87.9751 13.0136L90.0926 13.0136ZM82.5541 9.74283H87.9856C88.0056 9.38019 87.9511 9.01729 87.8255 8.6769C87.6999 8.33651 87.5059 8.02599 87.2557 7.76482C87.0055 7.50365 86.7044 7.29747 86.3715 7.15921C86.0385 7.02096 85.6808 6.95362 85.3208 6.96142C84.9577 6.95924 84.5977 7.02962 84.2617 7.16851C83.9256 7.3074 83.6202 7.51204 83.363 7.77063C83.1057 8.02922 82.9018 8.33664 82.763 8.67514C82.6242 9.01364 82.5532 9.37652 82.5541 9.74284V9.74283Z" fill="white"/>
</svg>
